<svg width="280" height="79" viewBox="0 0 280 79" fill="none" xmlns="http://www.w3.org/2000/svg">
<g filter="url(#filter0_d_1_7)">
<rect x="4" width="272" height="71" rx="35.5" fill="#1C1C1C"/>
</g>
<path d="M48.3949 31.9C48.3949 33.18 48.0949 34.35 47.4949 35.41C46.9149 36.45 46.0249 37.29 44.8249 37.93C43.6449 38.55 42.1949 38.86 40.4749 38.86H37.5649V46H31.6849V24.85H40.4749C42.1749 24.85 43.6149 25.15 44.7949 25.75C45.9949 26.35 46.8949 27.18 47.4949 28.24C48.0949 29.3 48.3949 30.52 48.3949 31.9ZM39.9049 34.18C41.5649 34.18 42.3949 33.42 42.3949 31.9C42.3949 30.36 41.5649 29.59 39.9049 29.59H37.5649V34.18H39.9049ZM56.6371 32.14C57.2971 31.18 58.0971 30.42 59.0371 29.86C59.9771 29.3 60.9871 29.02 62.0671 29.02V35.29H60.4171C59.1371 35.29 58.1871 35.54 57.5671 36.04C56.9471 36.54 56.6371 37.41 56.6371 38.65V46H50.7571V29.17H56.6371V32.14ZM72.0051 46.21C70.3251 46.21 68.8151 45.86 67.4751 45.16C66.1551 44.46 65.1151 43.46 64.3551 42.16C63.5951 40.86 63.2151 39.33 63.2151 37.57C63.2151 35.83 63.5951 34.31 64.3551 33.01C65.1351 31.71 66.1851 30.71 67.5051 30.01C68.8451 29.31 70.3551 28.96 72.0351 28.96C73.7151 28.96 75.2151 29.31 76.5351 30.01C77.8751 30.71 78.9251 31.71 79.6851 33.01C80.4651 34.31 80.8551 35.83 80.8551 37.57C80.8551 39.31 80.4651 40.84 79.6851 42.16C78.9251 43.46 77.8751 44.46 76.5351 45.16C75.1951 45.86 73.6851 46.21 72.0051 46.21ZM72.0051 41.11C72.8251 41.11 73.5051 40.81 74.0451 40.21C74.6051 39.59 74.8851 38.71 74.8851 37.57C74.8851 36.43 74.6051 35.56 74.0451 34.96C73.5051 34.36 72.8351 34.06 72.0351 34.06C71.2351 34.06 70.5651 34.36 70.0251 34.96C69.4851 35.56 69.2151 36.43 69.2151 37.57C69.2151 38.73 69.4751 39.61 69.9951 40.21C70.5151 40.81 71.1851 41.11 72.0051 41.11ZM89.4574 28.96C90.5974 28.96 91.5874 29.19 92.4274 29.65C93.2874 30.11 93.9474 30.73 94.4074 31.51V29.17H100.287V45.82C100.287 47.4 99.9874 48.82 99.3874 50.08C98.7874 51.36 97.8474 52.38 96.5674 53.14C95.3074 53.9 93.7074 54.28 91.7674 54.28C89.1674 54.28 87.0874 53.67 85.5274 52.45C83.9674 51.23 83.0774 49.57 82.8574 47.47H88.6474C88.7674 48.01 89.0674 48.43 89.5474 48.73C90.0274 49.03 90.6474 49.18 91.4074 49.18C93.4074 49.18 94.4074 48.06 94.4074 45.82V43.66C93.9474 44.44 93.2874 45.06 92.4274 45.52C91.5874 45.98 90.5974 46.21 89.4574 46.21C88.1174 46.21 86.8974 45.86 85.7974 45.16C84.7174 44.46 83.8574 43.46 83.2174 42.16C82.5974 40.84 82.2874 39.31 82.2874 37.57C82.2874 35.83 82.5974 34.31 83.2174 33.01C83.8574 31.71 84.7174 30.71 85.7974 30.01C86.8974 29.31 88.1174 28.96 89.4574 28.96ZM94.4074 37.57C94.4074 36.49 94.1074 35.64 93.5074 35.02C92.9274 34.4 92.2074 34.09 91.3474 34.09C90.4674 34.09 89.7374 34.4 89.1574 35.02C88.5774 35.62 88.2874 36.47 88.2874 37.57C88.2874 38.65 88.5774 39.51 89.1574 40.15C89.7374 40.77 90.4674 41.08 91.3474 41.08C92.2074 41.08 92.9274 40.77 93.5074 40.15C94.1074 39.53 94.4074 38.67 94.4074 37.57ZM109.518 32.14C110.178 31.18 110.978 30.42 111.918 29.86C112.858 29.3 113.868 29.02 114.948 29.02V35.29H113.298C112.018 35.29 111.068 35.54 110.448 36.04C109.828 36.54 109.518 37.41 109.518 38.65V46H103.638V29.17H109.518V32.14ZM116.096 37.57C116.096 35.83 116.406 34.31 117.026 33.01C117.666 31.71 118.526 30.71 119.606 30.01C120.706 29.31 121.926 28.96 123.266 28.96C124.426 28.96 125.426 29.19 126.266 29.65C127.106 30.11 127.756 30.73 128.216 31.51V29.17H134.096V46H128.216V43.66C127.756 44.44 127.096 45.06 126.236 45.52C125.396 45.98 124.406 46.21 123.266 46.21C121.926 46.21 120.706 45.86 119.606 45.16C118.526 44.46 117.666 43.46 117.026 42.16C116.406 40.84 116.096 39.31 116.096 37.57ZM128.216 37.57C128.216 36.49 127.916 35.64 127.316 35.02C126.736 34.4 126.016 34.09 125.156 34.09C124.276 34.09 123.546 34.4 122.966 35.02C122.386 35.62 122.096 36.47 122.096 37.57C122.096 38.65 122.386 39.51 122.966 40.15C123.546 40.77 124.276 41.08 125.156 41.08C126.016 41.08 126.736 40.77 127.316 40.15C127.916 39.53 128.216 38.67 128.216 37.57ZM159.437 29.02C161.557 29.02 163.217 29.66 164.417 30.94C165.637 32.22 166.247 33.97 166.247 36.19V46H160.367V36.97C160.367 36.07 160.117 35.37 159.617 34.87C159.117 34.37 158.437 34.12 157.577 34.12C156.717 34.12 156.037 34.37 155.537 34.87C155.037 35.37 154.787 36.07 154.787 36.97V46H148.907V36.97C148.907 36.07 148.657 35.37 148.157 34.87C147.677 34.37 147.007 34.12 146.147 34.12C145.267 34.12 144.577 34.37 144.077 34.87C143.577 35.37 143.327 36.07 143.327 36.97V46H137.447V29.17H143.327V31.39C143.847 30.67 144.517 30.1 145.337 29.68C146.177 29.24 147.137 29.02 148.217 29.02C149.457 29.02 150.557 29.29 151.517 29.83C152.497 30.37 153.267 31.13 153.827 32.11C154.427 31.19 155.217 30.45 156.197 29.89C157.177 29.31 158.257 29.02 159.437 29.02Z" fill="#2BEACC" fill-opacity="0.992157"/>
<path d="M191.458 29.02C193.578 29.02 195.238 29.66 196.438 30.94C197.658 32.22 198.268 33.97 198.268 36.19V46H192.388V36.97C192.388 36.07 192.138 35.37 191.638 34.87C191.138 34.37 190.458 34.12 189.598 34.12C188.738 34.12 188.058 34.37 187.558 34.87C187.058 35.37 186.808 36.07 186.808 36.97V46H180.928V36.97C180.928 36.07 180.678 35.37 180.178 34.87C179.698 34.37 179.028 34.12 178.168 34.12C177.288 34.12 176.598 34.37 176.098 34.87C175.598 35.37 175.348 36.07 175.348 36.97V46H169.468V29.17H175.348V31.39C175.868 30.67 176.538 30.1 177.358 29.68C178.198 29.24 179.158 29.02 180.238 29.02C181.478 29.02 182.578 29.29 183.538 29.83C184.518 30.37 185.288 31.13 185.848 32.11C186.448 31.19 187.238 30.45 188.218 29.89C189.198 29.31 190.278 29.02 191.458 29.02ZM204.46 27.61C203.42 27.61 202.58 27.33 201.94 26.77C201.32 26.19 201.01 25.47 201.01 24.61C201.01 23.73 201.32 23 201.94 22.42C202.58 21.84 203.42 21.55 204.46 21.55C205.48 21.55 206.3 21.84 206.92 22.42C207.56 23 207.88 23.73 207.88 24.61C207.88 25.47 207.56 26.19 206.92 26.77C206.3 27.33 205.48 27.61 204.46 27.61ZM207.37 29.17V46H201.49V29.17H207.37ZM221.728 29.02C223.668 29.02 225.208 29.67 226.348 30.97C227.488 32.25 228.058 33.99 228.058 36.19V46H222.178V36.97C222.178 36.01 221.928 35.26 221.428 34.72C220.928 34.16 220.258 33.88 219.418 33.88C218.538 33.88 217.848 34.16 217.348 34.72C216.848 35.26 216.598 36.01 216.598 36.97V46H210.718V29.17H216.598V31.57C217.118 30.81 217.818 30.2 218.698 29.74C219.578 29.26 220.588 29.02 221.728 29.02ZM230.324 37.57C230.324 35.83 230.634 34.31 231.254 33.01C231.894 31.71 232.764 30.71 233.864 30.01C234.964 29.31 236.184 28.96 237.524 28.96C238.604 28.96 239.564 29.19 240.404 29.65C241.264 30.09 241.934 30.7 242.414 31.48V23.8H248.324V46H242.414V43.66C241.954 44.44 241.304 45.06 240.464 45.52C239.624 45.98 238.634 46.21 237.494 46.21C236.154 46.21 234.934 45.86 233.834 45.16C232.754 44.46 231.894 43.46 231.254 42.16C230.634 40.84 230.324 39.31 230.324 37.57ZM242.444 37.57C242.444 36.49 242.144 35.64 241.544 35.02C240.964 34.4 240.244 34.09 239.384 34.09C238.504 34.09 237.774 34.4 237.194 35.02C236.614 35.62 236.324 36.47 236.324 37.57C236.324 38.65 236.614 39.51 237.194 40.15C237.774 40.77 238.504 41.08 239.384 41.08C240.244 41.08 240.964 40.77 241.544 40.15C242.144 39.53 242.444 38.67 242.444 37.57Z" fill="#800080"/>
<defs>
<filter id="filter0_d_1_7" x="0" y="0" width="280" height="79" filterUnits="userSpaceOnUse" color-interpolation-filters="sRGB">
<feFlood flood-opacity="0" result="BackgroundImageFix"/>
<feColorMatrix in="SourceAlpha" type="matrix" values="0 0 0 0 0 0 0 0 0 0 0 0 0 0 0 0 0 0 127 0" result="hardAlpha"/>
<feOffset dy="4"/>
<feGaussianBlur stdDeviation="2"/>
<feComposite in2="hardAlpha" operator="out"/>
<feColorMatrix type="matrix" values="0 0 0 0 0 0 0 0 0 0 0 0 0 0 0 0 0 0 0.25 0"/>
<feBlend mode="normal" in2="BackgroundImageFix" result="effect1_dropShadow_1_7"/>
<feBlend mode="normal" in="SourceGraphic" in2="effect1_dropShadow_1_7" result="shape"/>
</filter>
</defs>
</svg>
